# xmcd CD database file
#
# Track frame offsets:
#	150
#	14457
#	34145
#	54992
#	71435
#	87230
#	106717
#	125722
#	142387
#	159197
#
# Disc length: 2403 seconds
#
# Revision: 0
# Processed by: cddbd v1.5.1PL2 Copyright (c) Steve Scherf et al.
# Submitted via: CDex 1.50beta8
#
DISCID=8209610a
DTITLE=Boogaloob - 月のしずく
DYEAR=2003
DGENRE=Blues
TTITLE0=夜明け
TTITLE1=月の夜
TTITLE2=心の絲
TTITLE3=つまさき
TTITLE4=ふしあわせという名の猫
TTITLE5=夢の終り
TTITLE6=サーカス
TTITLE7=花
TTITLE8=儚きもの
TTITLE9=群青の海
EXTD=YEAR: 2003
EXTT0=
EXTT1=
EXTT2=
EXTT3=
EXTT4=
EXTT5=
EXTT6=
EXTT7=
EXTT8=
EXTT9=
PLAYORDER=
